<svg version="1.1" id="Layer_1" xmlns="http://www.w3.org/2000/svg" xmlns:xlink="http://www.w3.org/1999/xlink" x="0px" y="0px"
	 width="100%" viewBox="0 0 512 512" enable-background="new 0 0 512 512" xml:space="preserve">
<path fill="#4F4F4F" opacity="1.000000" stroke="none" 
	d="
M513.000000,291.000000 
	C513.000000,364.954865 513.000000,438.909760 513.000000,513.000000 
	C349.978027,513.000000 186.955994,513.000000 23.671463,512.739258 
	C43.712635,492.127380 63.962769,471.722290 84.377029,451.482727 
	C87.482010,448.404327 87.801445,446.126648 84.304291,443.449127 
	C83.521942,442.850098 82.892441,442.051392 82.519272,441.250977 
	C84.500961,439.797729 86.284500,438.566742 87.792412,437.059937 
	C147.870789,377.025177 207.926895,316.968170 267.965546,256.893707 
	C269.481903,255.376465 270.770691,253.631790 272.451965,252.152847 
	C273.930084,253.466995 275.255585,254.513000 276.293396,255.792389 
	C289.972107,272.655029 299.155579,291.671112 303.052612,313.066986 
	C304.389435,320.406555 304.930939,327.890961 306.125488,335.535522 
	C308.353668,336.134033 310.279266,336.734009 312.232574,336.844421 
	C343.238800,338.597229 369.934326,350.403046 392.677826,371.350006 
	C408.821503,386.218475 419.845764,404.430450 427.286469,425.342865 
	C429.723389,437.779510 432.095825,449.843536 434.595978,462.557129 
	C436.163910,461.161194 437.629059,460.119720 438.769379,458.797974 
	C445.175842,451.372314 451.888062,444.169495 457.793274,436.359344 
	C484.977600,400.405853 502.634827,360.330444 509.209290,315.566101 
	C510.413239,307.368652 511.733459,299.188263 513.000000,291.000000 
z"/>
<path fill="#4F4F4F" opacity="1.000000" stroke="none" 
	d="
M0.999997,491.000000 
	C1.000000,327.766479 1.000000,164.532974 1.000000,1.000000 
	C74.355072,1.000000 147.710556,1.000000 221.195618,1.214041 
	C209.358780,3.283379 197.290268,4.642370 185.443741,7.080232 
	C135.236969,17.412159 91.717064,40.659283 54.540516,75.865990 
	C53.362694,76.981407 52.565151,78.498390 51.219551,80.333939 
	C53.178959,80.644127 54.138630,80.898674 55.106258,80.933762 
	C68.524895,81.420441 81.468216,84.179146 94.037811,88.864143 
	C140.901627,106.331459 175.378708,151.511108 177.091003,203.296677 
	C177.144974,204.929062 178.220688,206.527679 179.229218,208.260590 
	C180.954193,208.546997 182.265701,208.806076 183.586563,208.869278 
	C210.848328,210.173538 235.048981,219.616974 256.451935,236.383148 
	C258.342224,237.863937 259.709198,240.012772 261.057190,242.096313 
	C199.343323,303.784882 137.886658,365.223694 76.467789,426.700256 
	C74.981842,428.187653 73.916672,430.095428 72.413231,431.624878 
	C66.628204,425.637421 66.631195,425.640411 61.080296,431.168945 
	C41.054726,451.113831 21.026939,471.056488 0.999997,491.000000 
z"/>
<path fill="#068551" opacity="1.000000" stroke="none" 
	d="
M178.820099,208.142029 
	C178.220688,206.527679 177.144974,204.929062 177.091003,203.296677 
	C175.378708,151.511108 140.901627,106.331459 94.037811,88.864143 
	C81.468216,84.179146 68.524895,81.420441 55.106258,80.933762 
	C54.138630,80.898674 53.178959,80.644127 51.219551,80.333939 
	C52.565151,78.498390 53.362694,76.981407 54.540516,75.865990 
	C91.717064,40.659283 135.236969,17.412159 185.443741,7.080232 
	C197.290268,4.642370 209.358780,3.283379 221.662598,1.214041 
	C234.354233,1.000000 246.708450,1.000000 259.882629,1.201309 
	C274.152649,3.492352 287.747894,4.912990 301.026489,7.793237 
	C346.743774,17.709732 386.918365,38.739609 421.929016,69.690384 
	C423.229218,70.839806 424.050385,72.531067 424.720795,73.884186 
	C407.335419,67.484047 390.465759,70.265182 373.784088,75.000862 
	C345.132416,83.134651 319.280853,97.261574 294.322784,113.135551 
	C263.881561,132.496994 235.643082,154.772812 208.872375,178.888840 
	C198.493423,188.238571 188.816711,198.367859 178.820099,208.142029 
z"/>
<path fill="#4F4F4F" opacity="1.000000" stroke="none" 
	d="
M425.094818,73.969818 
	C424.050385,72.531067 423.229218,70.839806 421.929016,69.690384 
	C386.918365,38.739609 346.743774,17.709732 301.026489,7.793237 
	C287.747894,4.912990 274.152649,3.492352 260.351288,1.201309 
	C344.260223,1.000000 428.520477,1.000000 513.000000,1.000000 
	C513.000000,84.687431 513.000000,168.375061 512.813721,252.176117 
	C512.417297,251.151031 512.126282,250.020782 512.009033,248.872787 
	C509.738342,226.634583 505.539825,204.808533 498.074524,183.683441 
	C490.957764,163.544632 482.219086,144.197174 469.980164,126.328377 
	C469.666595,125.751526 469.424805,125.379128 469.048462,124.707481 
	C468.280640,123.516319 467.647400,122.624405 466.897339,121.479622 
	C466.222198,120.490349 465.663879,119.753952 464.944153,118.757660 
	C464.515472,118.187019 464.248199,117.876251 463.867981,117.264168 
	C457.082184,108.392731 450.449860,99.790329 443.685577,91.292976 
	C442.833282,90.222313 441.286865,89.704185 440.032715,88.936577 
	C440.003326,88.943108 440.037354,88.992729 440.000092,88.663376 
	C439.643066,87.749550 439.323273,87.165092 438.974182,86.408089 
	C438.887878,86.005051 438.881531,85.773155 439.230988,85.347153 
	C446.265167,78.485588 453.158783,71.970131 459.612457,65.044731 
	C461.317291,63.215282 462.735016,59.984207 462.433472,57.634281 
	C461.569092,50.897831 454.556793,49.017708 449.249847,53.974873 
	C441.968109,60.776714 434.926300,67.835396 427.679291,74.838577 
	C427.576904,74.893143 427.371185,75.000404 427.113647,74.782974 
	C426.235046,74.361084 425.613953,74.156616 425.013947,73.982117 
	C425.035004,74.012093 425.094818,73.969818 425.094818,73.969818 
z"/>
<path fill="#073642" opacity="1.000000" stroke="none" 
	d="
M470.051910,126.532829 
	C482.219086,144.197174 490.957764,163.544632 498.074524,183.683441 
	C505.539825,204.808533 509.738342,226.634583 512.009033,248.872787 
	C512.126282,250.020782 512.417297,251.151031 512.813721,252.644775 
	C513.000000,265.354218 513.000000,277.708466 513.000000,290.531342 
	C511.733459,299.188263 510.413239,307.368652 509.209290,315.566101 
	C502.634827,360.330444 484.977600,400.405853 457.793274,436.359344 
	C451.888062,444.169495 445.175842,451.372314 438.769379,458.797974 
	C437.629059,460.119720 436.163910,461.161194 434.595978,462.557129 
	C432.095825,449.843536 429.723389,437.779510 427.530487,425.136566 
	C429.082062,423.110077 430.562286,421.749664 431.809875,420.201721 
	C448.078766,400.015808 461.967468,378.384491 472.750244,354.717590 
	C487.650085,322.014191 496.354248,287.775452 497.815002,251.954712 
	C499.493408,210.796677 491.702759,171.411392 472.811859,134.494781 
	C471.544678,132.018463 470.956116,129.194885 470.051910,126.532829 
z"/>
<path fill="#073642" opacity="1.000000" stroke="none" 
	d="
M0.999997,491.250000 
	C21.026939,471.056488 41.054726,451.113831 61.080296,431.168945 
	C66.631195,425.640411 66.628204,425.637421 72.607635,431.940430 
	C76.093552,435.407043 79.143066,438.375824 82.192574,441.344604 
	C82.892441,442.051392 83.521942,442.850098 84.304291,443.449127 
	C87.801445,446.126648 87.482010,448.404327 84.377029,451.482727 
	C63.962769,471.722290 43.712635,492.127380 23.204479,512.739258 
	C23.000000,513.000000 22.500000,513.000000 22.109501,512.695923 
	C14.812668,505.594604 7.906331,498.797302 0.999997,492.000000 
	C1.000000,492.000000 1.000000,491.500000 0.999997,491.250000 
z"/>
<path fill="#4F4F4F" opacity="1.000000" stroke="none" 
	d="
M0.999997,492.468933 
	C7.906331,498.797302 14.812668,505.594604 21.859501,512.695923 
	C15.073852,513.000000 8.147703,513.000000 1.000000,513.000000 
	C1.000000,506.314240 1.000000,499.626038 0.999997,492.468933 
z"/>
<path fill="#07674D" opacity="1.000000" stroke="none" 
	d="
M438.925812,85.539871 
	C438.881531,85.773155 438.887878,86.005051 439.080078,86.725594 
	C439.489349,87.807999 439.763336,88.400360 440.037354,88.992729 
	C440.037354,88.992729 440.003326,88.943108 440.112427,89.309517 
	C445.108276,102.446098 444.381622,115.441261 441.815063,128.522049 
	C436.613831,155.030792 424.897369,178.900696 411.582581,202.029312 
	C394.940277,230.938110 375.645721,258.075439 353.819305,283.267273 
	C338.375854,301.091980 321.868347,317.994843 305.835815,335.309204 
	C304.930939,327.890961 304.389435,320.406555 303.052612,313.066986 
	C299.155579,291.671112 289.972107,272.655029 276.293396,255.792389 
	C275.255585,254.513000 273.930084,253.466995 272.337891,251.824188 
	C268.398041,248.174347 264.858643,245.012833 261.319214,241.851318 
	C259.709198,240.012772 258.342224,237.863937 256.451935,236.383148 
	C235.048981,219.616974 210.848328,210.173538 183.586563,208.869278 
	C182.265701,208.806076 180.954193,208.546997 179.229218,208.260590 
	C188.816711,198.367859 198.493423,188.238571 208.872375,178.888840 
	C235.643082,154.772812 263.881561,132.496994 294.322784,113.135551 
	C319.280853,97.261574 345.132416,83.134651 373.784088,75.000862 
	C390.465759,70.265182 407.335419,67.484047 424.720795,73.884186 
	C425.094818,73.969818 425.035004,74.012093 425.299103,74.134155 
	C426.165863,74.504280 426.768524,74.752342 427.371185,75.000397 
	C427.371185,75.000404 427.576904,74.893143 427.838287,75.164848 
	C431.708405,78.804329 435.317108,82.172096 438.925812,85.539871 
z"/>
<path fill="#074A49" opacity="1.000000" stroke="none" 
	d="
M306.125488,335.535522 
	C321.868347,317.994843 338.375854,301.091980 353.819305,283.267273 
	C375.645721,258.075439 394.940277,230.938110 411.582581,202.029312 
	C424.897369,178.900696 436.613831,155.030792 441.815063,128.522049 
	C444.381622,115.441261 445.108276,102.446098 440.141815,89.302986 
	C441.286865,89.704185 442.833282,90.222313 443.685577,91.292976 
	C450.449860,99.790329 457.082184,108.392731 464.047913,117.515381 
	C464.595734,118.384453 464.850647,118.700996 465.105560,119.017548 
	C465.663879,119.753952 466.222198,120.490349 466.997986,121.804932 
	C467.871277,123.257652 468.527130,124.132195 469.182983,125.006729 
	C469.424805,125.379128 469.666595,125.751526 469.980164,126.328377 
	C470.956116,129.194885 471.544678,132.018463 472.811859,134.494781 
	C491.702759,171.411392 499.493408,210.796677 497.815002,251.954712 
	C496.354248,287.775452 487.650085,322.014191 472.750244,354.717590 
	C461.967468,378.384491 448.078766,400.015808 431.809875,420.201721 
	C430.562286,421.749664 429.082062,423.110077 427.465973,424.763947 
	C419.845764,404.430450 408.821503,386.218475 392.677826,371.350006 
	C369.934326,350.403046 343.238800,338.597229 312.232574,336.844421 
	C310.279266,336.734009 308.353668,336.134033 306.125488,335.535522 
z"/>
<path fill="#829297" opacity="1.000000" stroke="none" 
	d="
M261.057190,242.096313 
	C264.858643,245.012833 268.398041,248.174347 272.051514,251.664536 
	C270.770691,253.631790 269.481903,255.376465 267.965546,256.893707 
	C207.926895,316.968170 147.870789,377.025177 87.792412,437.059937 
	C86.284500,438.566742 84.500961,439.797729 82.519272,441.250977 
	C79.143066,438.375824 76.093552,435.407043 72.849625,432.122681 
	C73.916672,430.095428 74.981842,428.187653 76.467789,426.700256 
	C137.886658,365.223694 199.343323,303.784882 261.057190,242.096313 
z"/>
<path fill="#829297" opacity="1.000000" stroke="none" 
	d="
M439.230988,85.347145 
	C435.317108,82.172096 431.708405,78.804329 427.940674,75.110291 
	C434.926300,67.835396 441.968109,60.776714 449.249847,53.974873 
	C454.556793,49.017708 461.569092,50.897831 462.433472,57.634281 
	C462.735016,59.984207 461.317291,63.215282 459.612457,65.044731 
	C453.158783,71.970131 446.265167,78.485588 439.230988,85.347145 
z"/>
<path fill="#073642" opacity="1.000000" stroke="none" 
	d="
M469.048431,124.707489 
	C468.527130,124.132195 467.871277,123.257652 467.114777,122.057800 
	C467.647400,122.624405 468.280640,123.516319 469.048431,124.707489 
z"/>
<path fill="#068551" opacity="1.000000" stroke="none" 
	d="
M427.113647,74.782974 
	C426.768524,74.752342 426.165863,74.504280 425.278046,74.104187 
	C425.613953,74.156616 426.235046,74.361084 427.113647,74.782974 
z"/>
<path fill="#074A49" opacity="1.000000" stroke="none" 
	d="
M440.000092,88.663376 
	C439.763336,88.400360 439.489349,87.807999 439.109436,86.898132 
	C439.323273,87.165092 439.643066,87.749550 440.000092,88.663376 
z"/>
<path fill="#073642" opacity="1.000000" stroke="none" 
	d="
M464.944153,118.757660 
	C464.850647,118.700996 464.595734,118.384453 464.160889,117.816696 
	C464.248199,117.876251 464.515472,118.187019 464.944153,118.757660 
z"/>
</svg>